<svg width="211" height="211" viewBox="0 0 211 211" fill="none" xmlns="http://www.w3.org/2000/svg"><path d="M137.842 104.369C132.805 130.21 123.754 157.168 115.933 177.724C111.996 188.073 108.372 196.796 105.733 202.93C104.426 205.969 103.36 208.372 102.617 210.024C62.654 209.084 25.0072 185.243 8.37211 146.053C6.88579 142.552 5.60601 139.014 4.52362 135.455C5.97774 134.601 8.0249 133.438 10.6226 132.063C16.2861 129.064 24.566 125.049 35.0216 120.992C55.9351 112.877 85.5458 104.594 120.337 103.919C126.385 103.802 132.23 103.974 137.842 104.369ZM125.363 2.00539C125.747 2.95768 126.255 4.23498 126.853 5.78744C128.245 9.4073 130.128 14.523 132.09 20.5026C135.894 32.0955 139.986 46.9115 141.383 60.3731L141.509 61.6723C141.695 64.4711 141.766 67.3614 141.733 70.3275C134.935 69.6832 127.631 69.6912 119.804 70.5313C85.4513 74.2182 55.2935 88.1125 33.7348 101.072C22.9536 107.553 14.3164 113.804 8.37346 118.436C5.50226 120.674 3.25993 122.536 1.70761 123.862C-6.95798 76.5778 17.9016 27.9404 63.9984 8.37345C84.1229 -0.168928 105.422 -1.95005 125.363 2.00539ZM208.51 122.868C202.621 156.835 180.145 187.208 146.052 201.679C134.243 206.692 122.03 209.375 109.924 209.939C110.027 209.787 110.135 209.629 110.248 209.463C111.422 207.728 113.111 205.199 115.173 202.026C119.297 195.68 124.912 186.752 130.878 176.424C142.723 155.919 155.977 129.852 161.673 107.503C177.191 110.501 189.843 114.835 198.636 118.432C202.851 120.156 206.178 121.712 208.51 122.868ZM201.678 63.9997C207.975 78.835 210.597 94.3084 209.957 109.406C208.33 107.226 206.401 104.825 204.157 102.316C195.583 92.7277 182.404 81.5484 163.954 75.1303C161.389 53.261 151.435 33.5873 142.121 19.3764C137.655 12.562 133.328 6.99769 130.026 3.03893C161.056 10.6711 188.232 32.3217 201.678 63.9997Z" fill="white"/></svg>
